<?xml version="1.0" standalone="no"?><!DOCTYPE svg PUBLIC "-//W3C//DTD SVG 1.1//EN"
        "http://www.w3.org/Graphics/SVG/1.1/DTD/svg11.dtd">
<svg t="1592156283758" class="icon" viewBox="0 0 1024 1024" version="1.1" xmlns="http://www.w3.org/2000/svg" p-id="2087"
     xmlns:xlink="http://www.w3.org/1999/xlink" width="128" height="128">
    <defs>
        <style type="text/css"></style>
    </defs>
    <path d="M888 789H136c-39.76 0-72-32.24-72-72V307c0-39.76 32.24-72 72-72h752c39.76 0 72 32.24 72 72v410c0 39.76-32.24 72-72 72z"
          fill="#F7F9FB" p-id="2088"></path>
    <path d="M403.66 602.49c-0.34-3.45-2.03-6.5-4.61-8.96-4.17-3.96-9.41-5.51-14.85-5.69-10.26-0.34-20.53-0.15-30.8-0.12-2.3 0.01-3.75 1.48-4.1 3.8-0.25 1.66-0.55 3.31-0.81 4.97-1.75 11.18-3.49 22.36-5.23 33.54-0.76 4.85-1.37 9.73-2.3 14.55-0.91 4.7-1.19 9.5-2.45 14.13v2.99c0.93 0.96 2.06 1.26 3.38 1.23 3.48-0.06 6.97-0.02 10.45-0.02 4.1 0 5.01-0.73 5.68-4.77 0.91-5.46 1.71-10.93 2.62-16.39 0.48-2.85 1.39-3.55 4.27-3.6 4.29-0.06 8.58 0.17 12.86-0.32 6.19-0.7 12.01-2.45 16.62-6.82 8.2-7.77 10.34-17.71 9.27-28.52z m-20.53 10.84c-1.01 5.49-3.64 8.07-9.24 8.89-3.25 0.48-6.53 0.31-9.79 0.16-0.39-1.21-0.18-2.26-0.02-3.28 0.69-4.42 1.44-8.82 2.18-13.23 0.38-2.29 0.85-2.71 3.19-2.71 2.17 0 4.34-0.05 6.51 0.25 6.05 0.82 8.29 3.85 7.17 9.92zM531.64 613.93c-0.6-1.11-1.61-1.24-2.71-1.24-3.8 0.01-7.59 0.1-11.38-0.03-2.26-0.08-3.75 0.81-4.96 2.64-4.14 6.21-8.33 12.38-12.52 18.56-1.34 1.98-2.73 3.93-4.39 6.31l-2.48-8.23c-1.61-5.36-3.16-10.74-4.85-16.07-0.78-2.46-1.84-3.14-4.23-3.16-3.98-0.03-7.96-0.04-11.95 0-2.46 0.02-3.43 1.33-2.68 3.65 1.34 4.14 2.76 8.26 4.16 12.38 3.08 9.06 6.16 18.13 9.29 27.18 0.46 1.34 0.23 2.35-0.56 3.46-3.88 5.4-7.72 10.84-11.57 16.27-1.42 2.01-1.36 2.93 0.3 4.74h15.69c1.01-0.75 1.78-1.7 2.5-2.74 5.22-7.58 10.47-15.14 15.71-22.71 8.75-12.62 17.5-25.25 26.25-37.87 0.67-0.99 1-1.99 0.38-3.14zM460.29 612.71c-3.36-0.04-6.72-0.01-10.08-0.01-3.99 0-3.99 0-5.11 3.87-0.03 0.1-0.17 0.17-0.29 0.28-0.15-0.05-0.39-0.04-0.48-0.16-2.56-3.05-6.04-4.19-9.79-4.87-7.38-1.35-14.3-0.04-20.56 3.95-10.98 7-16.4 19.86-13.73 32.66 1.16 5.53 4.01 10.32 9.21 12.98 9.33 4.78 18.36 3.69 26.95-2.1 0.63-0.42 1.11-1.12 2.08-1.17 0 0.43 0.03 0.73 0 1.03-0.31 3.11 0.27 3.75 3.4 3.76 3.23 0.01 6.47 0.01 9.7 0 3.12-0.01 4.17-0.81 4.75-3.82 0.46-2.38 0.78-4.78 1.16-7.18 1.88-11.97 3.76-23.94 5.63-35.92 0.35-2.21-0.56-3.28-2.84-3.3z m-36.46 36.61c-4.32-1.31-6.35-4.94-6.11-10.33 0.39-8.96 9.62-15.48 18.17-12.84 4.43 1.37 6.83 4.81 6.81 9.74-0.07 9.33-8.75 16.5-18.87 13.43z"
          fill="#002F8C" p-id="2089"></path>
    <path d="M681.57 587.7c-3.48 0.09-6.97 0.07-10.45 0.02-1.91-0.03-2.87 0.92-3.16 2.71-0.74 4.48-1.5 8.95-2.2 13.43-1.99 12.77-3.94 25.54-5.92 38.32-0.88 5.65-1.82 11.29-2.67 16.94-0.42 2.79 0.4 3.74 3.1 3.76 3.17 0.02 6.34 0.02 9.52 0 3.06-0.01 4.4-1.23 4.86-4.22 1.47-9.52 2.98-19.03 4.46-28.55 1.3-8.35 2.5-16.72 3.94-25.05 0.82-4.77 1.24-9.61 2.46-14.32v-1.12c-0.89-1.52-2.23-1.96-3.94-1.92zM596.15 604.8c-0.24-4.97-2.19-9.33-6.32-12.4-4.3-3.2-9.33-4.49-14.55-4.59-9.71-0.2-19.42-0.08-29.13-0.07-2.64 0-4.05 1.19-4.51 3.77-0.65 3.67-1.24 7.36-1.82 11.04-2.37 14.92-4.73 29.85-7.09 44.77-0.61 3.87-1.29 7.73-1.82 11.61-0.43 3.11 0.37 3.94 3.5 3.94 4.05 0.01 8.09-0.03 12.14 0.01 1.88 0.02 2.94-0.84 3.26-2.63 0.33-1.84 0.6-3.68 0.9-5.52 0.73-4.48 1.38-8.97 2.21-13.43 0.45-2.4 1.49-3.1 3.9-3.14 1.31-0.02 2.61 0 3.92 0 3.98 0.04 7.97-0.07 11.9-0.75 6.84-1.18 12.86-3.97 17.07-9.73 4.96-6.79 6.84-14.58 6.44-22.88z m-29.88 17.5c-3.33 0.35-6.65 0.24-10.34 0.11 0.27-2.06 0.46-3.71 0.72-5.35 0.61-3.86 1.27-7.72 1.87-11.58 0.26-1.64 1.21-2.31 2.81-2.36 2.86-0.09 5.72 0.06 8.55 0.46 3.03 0.43 5.08 2.23 5.5 5.25 0.86 6.11-1.53 12.67-9.11 13.47zM652.21 612.74c-3.61-0.03-7.22-0.01-10.83-0.01-2.92 0-3.17 0.23-3.85 3.14-0.1 0.44-0.03 1.02-0.68 1.25-1.72-2.14-3.86-3.72-6.51-4.47-6.8-1.91-13.47-1.77-20.08 1.03-12.37 5.24-20.31 19.4-18.15 32.66 1.19 7.27 4.61 13.04 11.57 16.06 5.44 2.36 11.16 2.24 16.83 0.83 3.8-0.95 7.12-2.88 10.35-5.92-0.06 0.83-0.07 1.13-0.11 1.42-0.53 3.34 0.16 4.14 3.58 4.14 3.17 0.01 6.35 0.01 9.52 0 3.15-0.01 4.21-0.94 4.71-4.07 1.62-10.13 3.25-20.26 4.85-30.4 0.66-4.18 1.36-8.35 1.81-12.55 0.29-2.42-0.53-3.09-3.01-3.11z m-17.22 24.3c-0.83 7.64-6.88 13.07-14.54 13.06-7.8-0.02-11.82-5.19-10.3-13.25 1.4-7.46 9.79-12.83 17.13-10.96 5.37 1.35 8.31 5.62 7.71 11.15z"
          fill="#009EE4" p-id="2090"></path>
    <path d="M455.6 351.82l-29.3 184.43c-0.6 3.78 2.32 7.2 6.14 7.2h44.14L486.5 477c1-5 4.71-8.63 9.7-8.63h27.56s62 2.99 73.96-63.87c10.33-57.8-40.34-60.88-67.61-60.88h-64.9a9.717 9.717 0 0 0-9.61 8.2z"
          fill="#002F8C" p-id="2091"></path>
    <path d="M498.63 400.85L472.98 562.3c-0.53 3.31 2.03 6.3 5.38 6.3h35.81c4.57 0 8.46-3.32 9.19-7.83l7.66-47.63a8.639 8.639 0 0 1 8.53-7.27l15.39-0.37s51.37 1.35 61.08-56.92c8.45-50.7-30.26-54.91-52.16-54.91h-56.82a8.52 8.52 0 0 0-8.41 7.18z"
          fill="#009EE4" p-id="2092"></path>
    <path d="M597.72 404.5c0.25-1.41 0.47-2.78 0.65-4.13-10.93-5.82-24.48-6.7-34.51-6.7h-56.82c-4.19 0-7.76 3.05-8.41 7.18l-11.67 73.46c1.62-3.54 5.18-5.94 9.24-5.94h27.56c0.01 0 62.01 2.99 73.96-63.87z"
          fill="#00206D" p-id="2093"></path>
</svg>